<?xml version="1.0"?>
<svg xmlns="http://www.w3.org/2000/svg" class="" viewBox="0 -61 512 512" width="512px" height="512px"><g><path class="active-path" d="m 497 90 h -45 v -44.375 c 0 -24.8242 -20.1914 -45.625 -45 -45.625 h -362 c -24.8125 0 -45 20.1875 -45 45 v 270 c 0 41.3555 33.6445 75 75 75 h 362 c 41.3555 0 75 -33.6445 75 -75 v -210 c 0 -8.28516 -6.71484 -15 -15 -15 Z m -105 -45 c 0 -8.40625 6.90625 -15.2266 15.4336 -14.9922 c 8.03125 0.21875 14.5664 7.22656 14.5664 15.6172 v 224.375 h -30 Z m -362 270 v -270 c 0 -8.26953 6.73047 -15 15 -15 h 319.555 c -1.67578 4.75 -2.55469 9.80078 -2.55469 15 v 270 c 0 16.8711 5.60156 32.457 15.0391 45 h -302.039 c -24.8125 0 -45 -20.1875 -45 -45 Z m 452 0 c 0 24.8125 -20.1875 45 -45 45 s -45 -20.1875 -45 -45 v -15 h 45 c 8.28516 0 15 -6.71484 15 -15 v -165 h 30 Z m 0 0" data-original="#000000" data-old_color="#000000" fill="#FFFFFF"/><path class="active-path" d="m 317 60 h -242 c -8.28516 0 -15 6.71484 -15 15 s 6.71484 15 15 15 h 242 c 8.28516 0 15 -6.71484 15 -15 s -6.71484 -15 -15 -15 Z m 0 0" data-original="#000000" data-old_color="#000000" fill="#FFFFFF"/><path class="active-path" d="m 317 120 h -242 c -8.28516 0 -15 6.71484 -15 15 s 6.71484 15 15 15 h 242 c 8.28516 0 15 -6.71484 15 -15 s -6.71484 -15 -15 -15 Z m 0 0" data-original="#000000" data-old_color="#000000" fill="#FFFFFF"/><path class="active-path" d="m 197 180 h -121 c -8.28516 0 -15 6.71484 -15 15 v 120 c 0 8.28516 6.71484 15 15 15 h 121 c 8.28516 0 15 -6.71484 15 -15 v -120 c 0 -8.28516 -6.71484 -15 -15 -15 Z m -15 120 h -91 v -90 h 91 Z m 0 0" data-original="#000000" data-old_color="#000000" fill="#FFFFFF"/><path class="active-path" d="m 317 180 h -61 c -8.28516 0 -15 6.71484 -15 15 s 6.71484 15 15 15 h 61 c 8.28516 0 15 -6.71484 15 -15 s -6.71484 -15 -15 -15 Z m 0 0" data-original="#000000" data-old_color="#000000" fill="#FFFFFF"/><path class="active-path" d="m 317 240 h -61 c -8.28516 0 -15 6.71484 -15 15 s 6.71484 15 15 15 h 61 c 8.28516 0 15 -6.71484 15 -15 s -6.71484 -15 -15 -15 Z m 0 0" data-original="#000000" data-old_color="#000000" fill="#FFFFFF"/><path class="active-path" d="m 317 300 h -61 c -8.28516 0 -15 6.71484 -15 15 s 6.71484 15 15 15 h 61 c 8.28516 0 15 -6.71484 15 -15 s -6.71484 -15 -15 -15 Z m 0 0" data-original="#000000" data-old_color="#000000" fill="#FFFFFF"/></g> </svg>
