<?xml version="1.0"?>
<svg xmlns="http://www.w3.org/2000/svg" id="Layer_5" viewBox="0 0 64 64" width="512px" height="512px" enable-background="new 0 0 64 64"><g><g><path class="active-path" d="m 31 61 h 2 c 2.414 0 4.434 -1.721 4.899 -4 h -11.798 c 0.465 2.279 2.485 4 4.899 4 Z" data-original="#000000" data-old_color="#000000" fill="#FFFFFF"/><path class="active-path" d="m 41.451 28.242 l 0.156 -0.458 l 1.393 -0.492 v -4.585 l -1.393 -0.491 l -0.156 -0.458 c -0.13 -0.38 -0.29 -0.765 -0.477 -1.146 l -0.214 -0.435 l 0.639 -1.334 l -3.242 -3.242 l -1.335 0.638 l -0.436 -0.214 c -0.375 -0.185 -0.761 -0.345 -1.146 -0.477 l -0.458 -0.157 l -0.49 -1.391 h -4.584 l -0.491 1.392 l -0.458 0.157 c -0.385 0.132 -0.771 0.292 -1.146 0.477 l -0.436 0.214 l -1.335 -0.638 l -3.242 3.242 l 0.639 1.334 l -0.214 0.435 c -0.187 0.381 -0.347 0.766 -0.477 1.146 l -0.156 0.458 l -1.392 0.491 v 4.585 l 1.393 0.491 l 0.156 0.458 c 0.13 0.38 0.29 0.765 0.477 1.146 l 0.214 0.435 l -0.639 1.334 l 3.242 3.242 l 1.335 -0.638 l 0.436 0.214 c 0.375 0.185 0.761 0.345 1.146 0.477 l 0.458 0.157 l 0.49 1.391 h 4.584 l 0.491 -1.392 l 0.458 -0.157 c 0.385 -0.132 0.771 -0.292 1.146 -0.477 l 0.436 -0.214 l 1.335 0.638 l 3.242 -3.242 l -0.639 -1.334 l 0.214 -0.435 c 0.186 -0.38 0.346 -0.765 0.476 -1.145 Z m -9.451 3.758 c -3.866 0 -7 -3.134 -7 -7 s 3.134 -7 7 -7 s 7 3.134 7 7 s -3.134 7 -7 7 Z" data-original="#000000" data-old_color="#000000" fill="#FFFFFF"/><circle class="active-path" cx="32" cy="25" r="3" data-original="#000000" data-old_color="#000000" fill="#FFFFFF"/><path class="active-path" d="m 18.055 15.297 c -1.378 1.976 -2.348 4.25 -2.785 6.703 h 3.73 v -0.708 l 1.826 -0.645 c 0.062 -0.157 0.127 -0.314 0.196 -0.471 l -0.836 -1.748 l 0.5 -0.5 Z" data-original="#000000" data-old_color="#000000" fill="#FFFFFF"/><path class="active-path" d="m 25.429 13.186 l 1.749 0.836 c 0.155 -0.069 0.313 -0.134 0.471 -0.196 l 0.643 -1.826 h 0.708 v -3.705 c -2.468 0.439 -4.74 1.395 -6.702 2.76 l 2.631 2.631 Z" data-original="#000000" data-old_color="#000000" fill="#FFFFFF"/><path class="active-path" d="m 20.826 29.352 l -1.826 -0.644 v -0.708 h -3.728 c 0.43 2.408 1.385 4.685 2.787 6.698 l 2.627 -2.627 l -0.5 -0.5 l 0.836 -1.748 c -0.069 -0.157 -0.134 -0.314 -0.196 -0.471 Z" data-original="#000000" data-old_color="#000000" fill="#FFFFFF"/><path class="active-path" d="m 45.941 34.698 c 1.402 -2.013 2.357 -4.29 2.787 -6.698 h -3.728 v 0.708 l -1.826 0.645 c -0.062 0.157 -0.127 0.314 -0.196 0.471 l 0.836 1.748 l -0.5 0.5 Z" data-original="#000000" data-old_color="#000000" fill="#FFFFFF"/><path class="active-path" d="m 38.046 47 c 0.218 -2.463 1.234 -4.785 2.919 -6.625 l 1.037 -1.131 l -2.931 -2.931 l -0.5 0.5 l -1.749 -0.836 c -0.155 0.069 -0.313 0.134 -0.471 0.196 l -0.643 1.827 h -0.708 v 8.382 c -0.522 -0.597 -1.21 -1.035 -2 -1.24 v -7.142 h -2 v 7.142 c -0.79 0.205 -1.478 0.643 -2 1.24 v -8.382 h -0.708 l -0.644 -1.826 c -0.158 -0.062 -0.315 -0.127 -0.471 -0.196 l -1.749 0.836 l -0.5 -0.5 l -2.931 2.931 l 1.037 1.131 c 1.685 1.84 2.702 4.162 2.919 6.625 h 2.603 c -0.344 0.589 -0.556 1.267 -0.556 1.999 c 0 0.232 0.03 0.457 0.069 0.678 c -0.041 -0.22 -0.069 -0.445 -0.069 -0.678 h -4 c -0.552 0 -1 0.449 -1 1 s 0.448 1 1 1 h 4.556 c 0 -0.001 -0.001 -0.002 -0.001 -0.003 c 0.694 1.192 1.97 2.003 3.445 2.003 c 1.474 0 2.751 -0.811 3.445 -2.002 c 0 0.001 -0.001 0.001 -0.001 0.002 h 4.556 c 0.552 0 1 -0.449 1 -1 s -0.448 -1 -1 -1 h -4 c 0 0.233 -0.028 0.458 -0.069 0.678 c 0.039 -0.221 0.069 -0.446 0.069 -0.678 c 0 -0.732 -0.212 -1.41 -0.557 -2 Z m -9.918 2.955 c 0.025 0.102 0.06 0.2 0.093 0.298 c -0.034 -0.098 -0.067 -0.197 -0.093 -0.298 Z m 7.651 0.297 c 0.033 -0.098 0.067 -0.196 0.093 -0.298 c -0.026 0.102 -0.059 0.2 -0.093 0.298 Z" data-original="#000000" data-old_color="#000000" fill="#FFFFFF"/><path class="active-path" d="m 48.731 22 c -0.438 -2.453 -1.408 -4.726 -2.785 -6.703 l -2.632 2.632 l 0.5 0.5 l -0.836 1.748 c 0.069 0.157 0.135 0.314 0.196 0.471 l 1.826 0.644 v 0.708 Z" data-original="#000000" data-old_color="#000000" fill="#FFFFFF"/><path class="active-path" d="m 35 12 h 0.708 l 0.644 1.826 c 0.158 0.062 0.315 0.127 0.471 0.196 l 1.749 -0.836 l 0.5 0.5 l 2.631 -2.631 c -1.963 -1.365 -4.235 -2.321 -6.703 -2.76 Z" data-original="#000000" data-old_color="#000000" fill="#FFFFFF"/><path class="active-path" d="m 23 54 c 0 0.551 0.448 1 1 1 h 16 c 0.552 0 1 -0.449 1 -1 s -0.448 -1 -1 -1 h -8 h -8 c -0.552 0 -1 0.449 -1 1 Z" data-original="#000000" data-old_color="#000000" fill="#FFFFFF"/><path class="active-path" d="m 31 8.858 v 3.142 h 2 v -3.142 c 1.72 -0.447 3 -1.999 3 -3.858 c 0 -2.206 -1.795 -4 -4 -4 s -4 1.794 -4 4 c 0 1.859 1.28 3.411 3 3.858 Z" data-original="#000000" data-old_color="#000000" fill="#FFFFFF"/><path class="active-path" d="m 14 11 c 0.74 0 1.424 -0.215 2.019 -0.567 l 6.081 6.081 l 1.414 -1.414 l -6.081 -6.081 c 0.352 -0.595 0.567 -1.279 0.567 -2.019 c 0 -2.206 -1.794 -4 -4 -4 s -4 1.794 -4 4 s 1.794 4 4 4 Z" data-original="#000000" data-old_color="#000000" fill="#FFFFFF"/><path class="active-path" d="m 50 39 c -0.74 0 -1.424 0.215 -2.019 0.567 l -6.081 -6.081 l -1.414 1.414 l 6.081 6.081 c -0.352 0.595 -0.567 1.279 -0.567 2.019 c 0 2.206 1.794 4 4 4 s 4 -1.794 4 -4 s -1.794 -4 -4 -4 Z" data-original="#000000" data-old_color="#000000" fill="#FFFFFF"/><path class="active-path" d="m 58 20 c -2.414 0 -4.434 1.721 -4.899 4 h -8.101 v 2 h 8.101 c 0.465 2.279 2.484 4 4.899 4 c 2.757 0 5 -2.243 5 -5 s -2.243 -5 -5 -5 Z" data-original="#000000" data-old_color="#000000" fill="#FFFFFF"/><path class="active-path" d="m 19 26 v -2 h -8.101 c -0.465 -2.279 -2.485 -4 -4.899 -4 c -2.757 0 -5 2.243 -5 5 s 2.243 5 5 5 c 2.414 0 4.434 -1.721 4.899 -4 Z" data-original="#000000" data-old_color="#000000" fill="#FFFFFF"/><path class="active-path" d="m 40.485 15.101 l 1.414 1.414 l 6.081 -6.081 c 0.596 0.351 1.28 0.566 2.02 0.566 c 2.206 0 4 -1.794 4 -4 s -1.794 -4 -4 -4 s -4 1.794 -4 4 c 0 0.74 0.215 1.424 0.567 2.019 Z" data-original="#000000" data-old_color="#000000" fill="#FFFFFF"/><path class="active-path" d="m 23.515 34.899 l -1.414 -1.414 l -6.081 6.081 c -0.596 -0.351 -1.28 -0.566 -2.02 -0.566 c -2.206 0 -4 1.794 -4 4 s 1.794 4 4 4 s 4 -1.794 4 -4 c 0 -0.74 -0.215 -1.424 -0.567 -2.019 Z" data-original="#000000" data-old_color="#000000" fill="#FFFFFF"/></g></g> </svg>
